<?xml version="1.0" encoding="UTF-8" ?>
<!DOCTYPE svg PUBLIC "-//W3C//DTD SVG 1.1//EN" "http://www.w3.org/Graphics/SVG/1.1/DTD/svg11.dtd">
<svg width="128pt" height="128pt" viewBox="0 0 128 128" version="1.1" xmlns="http://www.w3.org/2000/svg">
<g id="#000000ff">
<path fill="#000000" opacity="1.00" d=" M 62.30 0.00 L 65.70 0.00 C 70.18 0.66 74.67 1.95 78.43 4.55 C 83.96 8.37 88.01 14.41 89.10 21.08 C 90.09 27.13 89.07 33.60 85.83 38.85 C 83.67 42.37 80.47 45.04 77.34 47.65 C 85.00 48.69 92.51 50.67 99.81 53.19 C 103.25 54.40 106.71 56.08 108.96 59.05 C 111.91 62.85 113.40 67.51 115.02 71.98 C 117.63 79.61 120.38 87.20 123.37 94.71 C 125.25 99.65 127.38 104.66 127.63 110.02 C 127.79 113.87 126.63 118.07 123.56 120.60 C 120.78 122.84 116.98 123.12 113.57 122.69 C 108.10 121.98 102.92 119.96 97.74 118.15 C 97.23 121.52 96.77 125.01 95.00 128.00 L 92.91 128.00 C 92.30 124.03 91.97 120.03 91.68 116.02 C 90.51 115.66 89.34 115.30 88.17 114.94 C 85.22 118.05 82.31 121.30 78.69 123.66 C 74.84 126.19 70.29 127.41 65.77 128.00 L 63.28 128.00 C 59.37 127.62 55.42 126.87 51.93 125.03 C 49.15 123.59 46.78 121.53 44.10 119.93 C 41.81 118.43 38.95 118.85 36.36 118.76 C 36.02 121.51 35.68 124.26 35.35 127.01 C 34.03 127.07 32.70 127.13 31.37 127.20 C 30.99 125.14 30.60 123.08 30.22 121.03 C 24.17 122.08 18.08 123.38 11.90 123.01 C 9.07 122.83 6.08 122.15 3.94 120.15 C 1.22 117.58 0.22 113.65 0.37 110.01 C 0.60 104.92 2.56 100.13 4.35 95.43 C 7.43 87.68 10.30 79.86 12.98 71.98 C 14.60 67.50 16.06 62.81 19.04 59.01 C 21.34 56.08 24.78 54.39 28.19 53.12 C 35.44 50.45 43.00 48.69 50.65 47.70 C 47.71 45.21 44.71 42.68 42.56 39.45 C 39.18 34.38 38.00 28.02 38.76 22.02 C 39.65 14.76 44.05 8.11 50.16 4.16 C 53.80 1.81 58.05 0.63 62.30 0.00 M 59.40 5.65 C 50.40 7.80 43.15 16.61 43.62 26.01 C 43.53 36.71 53.29 46.31 64.00 45.99 C 73.05 46.23 81.54 39.45 83.75 30.76 C 85.63 23.74 83.46 15.85 78.05 10.96 C 73.30 6.05 66.02 4.12 59.40 5.65 M 31.36 57.42 C 28.40 58.49 25.22 59.59 23.13 62.07 C 21.21 64.43 20.16 67.34 19.09 70.15 C 15.15 81.13 11.22 92.12 7.00 103.00 C 5.57 106.90 4.23 111.57 6.57 115.41 C 7.62 117.34 10.01 117.66 11.97 117.87 C 18.84 118.47 25.57 116.63 32.23 115.20 C 36.09 114.34 40.01 113.72 43.83 112.68 C 45.90 112.06 48.14 111.34 49.55 109.60 C 51.86 106.61 51.35 101.90 48.62 99.35 C 46.58 97.53 43.65 97.52 41.08 97.62 C 35.31 97.96 29.62 99.14 23.90 99.96 C 23.63 98.70 23.34 97.44 23.24 96.15 C 27.02 93.31 32.10 93.59 36.54 92.69 C 38.90 87.13 41.64 81.39 46.58 77.65 C 56.68 69.77 72.10 69.87 81.97 78.10 C 85.28 80.80 87.03 84.91 90.28 87.64 C 95.43 90.62 101.66 91.13 106.73 94.29 C 108.64 95.13 107.99 97.47 108.36 99.11 C 99.93 98.00 92.60 92.69 84.04 92.36 C 78.49 92.23 75.15 99.51 78.08 103.95 C 79.61 106.19 82.29 107.16 84.70 108.15 C 90.40 110.22 96.20 112.00 101.86 114.18 C 106.75 115.92 111.77 117.95 117.05 117.68 C 119.85 117.66 122.21 115.40 122.59 112.67 C 123.31 107.80 120.99 103.19 119.38 98.73 C 114.93 87.64 111.48 76.16 106.84 65.16 C 104.38 59.02 97.29 57.84 91.72 56.07 C 80.35 52.32 68.25 50.54 56.29 51.64 C 47.81 52.66 39.46 54.70 31.36 57.42 M 50.89 80.91 C 47.12 83.39 44.73 87.30 42.50 91.11 C 45.63 92.34 48.96 93.30 51.70 95.34 C 56.12 98.72 57.31 105.25 55.17 110.24 C 53.77 113.20 50.84 114.96 48.34 116.89 C 51.57 118.95 54.79 121.23 58.57 122.18 C 63.55 123.38 69.00 123.02 73.62 120.68 C 77.10 119.06 79.82 116.26 82.37 113.47 C 79.14 111.24 75.38 109.36 73.24 105.93 C 70.70 101.29 71.56 95.05 75.16 91.20 C 77.28 89.02 80.29 88.13 83.00 86.94 C 81.36 84.94 79.72 82.89 77.65 81.31 C 69.99 75.63 58.69 75.32 50.89 80.91 Z" />
</g>
</svg>
